<svg width="166" height="166" viewBox="0 0 166 166" fill="none" xmlns="http://www.w3.org/2000/svg">
    <rect width="166" height="166" fill="#054A29"/>
    <path d="M98.4522 112.563C94.6986 116.22 91.0289 119.974 87.2513 123.608C84.7929 125.658 81.7827 125.61 79.2763 123.668L63.0266 107.898C62.1271 107.154 61.2397 106.674 60.0165 106.938C58.9132 107.178 58.3495 108.425 57.8458 109.325C56.011 112.587 54.9437 116.184 51.1421 117.731C46.513 119.626 39.4734 117.767 42.0518 111.519C48.9474 97.5601 55.6632 83.5049 62.5589 69.5457C66.3125 61.9545 70.0062 54.0035 74.0116 46.5802C76.5061 41.9631 80.9553 39.7565 86.172 41.3515C90.1295 42.5627 91.5326 45.4769 93.3075 48.8468C102.841 66.9553 111.656 85.8674 120.602 104.3C121.802 106.77 124.776 111.519 124.512 114.122C123.96 119.41 116.273 119.254 112.975 116.616C110.049 114.266 109.593 110.788 107.566 108.113C106.727 107.01 105.672 106.638 104.353 107.166C103.129 107.658 99.6515 111.423 98.4522 112.599V112.563ZM83.018 56.2941C82.7301 56.318 82.4183 56.5099 82.3104 56.7858L75.8945 70.3852C75.9424 70.7929 76.1463 71.3206 76.578 71.4525L89.0022 71.5125C90.5852 71.0807 90.2974 70.3372 89.8057 69.15C88.0668 65.0605 85.8242 61.091 84.0973 56.9896C83.9174 56.5819 83.4977 56.2581 83.042 56.3061L83.018 56.2941ZM72.1168 82.9293C62.4629 83.8647 59.3929 95.5213 65.545 102.501C70.5578 108.185 76.9738 113.162 82.0945 118.811C83.006 119.518 83.5097 119.302 84.3132 118.631C88.2707 115.345 91.8204 110.68 95.8259 107.358C98.5602 104.372 102.098 102.009 103.345 97.9678C106.259 88.5777 97.7687 80.0871 88.4146 83.7568C85.7283 84.8121 84.8768 86.1672 83.2698 88.3259C83.1979 88.4218 83.1619 88.5657 82.994 88.5298C82.8261 88.4938 82.2025 87.3305 82.0226 87.1026C79.6721 84.1165 75.9184 82.5575 72.1168 82.9293Z" fill="white"/>
</svg>
